<svg width="26" height="27" viewBox="0 0 26 27" fill="none" xmlns="http://www.w3.org/2000/svg">
<path d="M22.75 17.8324V9.16575C22.7496 8.78579 22.6493 8.41262 22.4592 8.08367C22.269 7.75472 21.9957 7.48156 21.6667 7.29158L14.0833 2.95825C13.754 2.76808 13.3803 2.66797 13 2.66797C12.6197 2.66797 12.246 2.76808 11.9167 2.95825L4.33333 7.29158C4.00428 7.48156 3.73098 7.75472 3.54083 8.08367C3.35069 8.41262 3.25039 8.78579 3.25 9.16575V17.8324C3.25039 18.2124 3.35069 18.5855 3.54083 18.9145C3.73098 19.2434 4.00428 19.5166 4.33333 19.7066L11.9167 24.0399C12.246 24.2301 12.6197 24.3302 13 24.3302C13.3803 24.3302 13.754 24.2301 14.0833 24.0399L21.6667 19.7066C21.9957 19.5166 22.269 19.2434 22.4592 18.9145C22.6493 18.5855 22.7496 18.2124 22.75 17.8324Z" stroke="#5B5B5B" stroke-width="1.5" stroke-linecap="round" stroke-linejoin="round"/>
<path d="M3.5425 8.03906L13 13.5099L22.4575 8.03906" stroke="#5B5B5B" stroke-width="1.5" stroke-linecap="round" stroke-linejoin="round"/>
<path d="M13 24.42V13.5" stroke="#5B5B5B" stroke-width="1.5" stroke-linecap="round" stroke-linejoin="round"/>
</svg>
