<svg width="176" height="30" viewBox="0 0 176 30" fill="none" xmlns="http://www.w3.org/2000/svg">
<path d="M16.5547 22.5156C16.5547 23.4661 16.3594 24.3581 15.9688 25.1914C15.5911 26.0247 15.0768 26.7539 14.4258 27.3789C13.7878 28.0039 13.0391 28.4987 12.1797 28.8633C11.3333 29.2148 10.4349 29.3906 9.48438 29.3906H7.47266C6.52214 29.3906 5.61719 29.2148 4.75781 28.8633C3.91146 28.4987 3.16276 28.0039 2.51172 27.3789C1.8737 26.7539 1.35938 26.0247 0.96875 25.1914C0.591146 24.3581 0.402344 23.4661 0.402344 22.5156V21.4023L2.92188 20.9922V22.5156C2.92188 23.1406 3.04557 23.7266 3.29297 24.2734C3.55339 24.8073 3.89844 25.2826 4.32812 25.6992C4.75781 26.1029 5.2526 26.4219 5.8125 26.6562C6.38542 26.8906 6.98438 27.0078 7.60938 27.0078H9.36719C9.99219 27.0078 10.5846 26.8906 11.1445 26.6562C11.7044 26.4219 12.1992 26.1029 12.6289 25.6992C13.0586 25.2826 13.3971 24.8073 13.6445 24.2734C13.9049 23.7266 14.0352 23.1406 14.0352 22.5156V21.6758C14.0352 20.7122 13.8464 19.9115 13.4688 19.2734C13.0911 18.6354 12.5898 18.0951 11.9648 17.6523C11.3398 17.1966 10.6302 16.8125 9.83594 16.5C9.05469 16.1875 8.2474 15.875 7.41406 15.5625C6.58073 15.25 5.76693 14.9049 4.97266 14.5273C4.19141 14.1497 3.48828 13.681 2.86328 13.1211C2.23828 12.5482 1.73698 11.8516 1.35938 11.0312C0.981771 10.2109 0.792969 9.20182 0.792969 8.00391V7.47656C0.792969 6.52604 0.96875 5.63411 1.32031 4.80078C1.6849 3.96745 2.17969 3.23828 2.80469 2.61328C3.42969 1.98828 4.15885 1.5 4.99219 1.14844C5.83854 0.783854 6.73698 0.601562 7.6875 0.601562H9.48438C10.4349 0.601562 11.3268 0.783854 12.1602 1.14844C12.9935 1.5 13.7227 1.98828 14.3477 2.61328C14.9727 3.23828 15.4609 3.96745 15.8125 4.80078C16.1771 5.63411 16.3594 6.52604 16.3594 7.47656V8.19922L13.8398 8.60938V7.47656C13.8398 6.85156 13.7227 6.27214 13.4883 5.73828C13.2539 5.19141 12.9349 4.71615 12.5312 4.3125C12.1276 3.90885 11.6523 3.58984 11.1055 3.35547C10.5716 3.12109 9.99219 3.00391 9.36719 3.00391H7.80469C7.17969 3.00391 6.59375 3.12109 6.04688 3.35547C5.51302 3.58984 5.03776 3.90885 4.62109 4.3125C4.21745 4.71615 3.89844 5.19141 3.66406 5.73828C3.42969 6.27214 3.3125 6.85156 3.3125 7.47656V8.00391C3.3125 8.90234 3.5013 9.65755 3.87891 10.2695C4.25651 10.8815 4.75781 11.4089 5.38281 11.8516C6.00781 12.2812 6.71094 12.6589 7.49219 12.9844C8.28646 13.2969 9.10026 13.6224 9.93359 13.9609C10.7669 14.2865 11.5742 14.651 12.3555 15.0547C13.1497 15.4453 13.8594 15.9336 14.4844 16.5195C15.1094 17.0924 15.6107 17.7956 15.9883 18.6289C16.3659 19.4622 16.5547 20.4779 16.5547 21.6758V22.5156Z" fill="#EB6345"/>
<path d="M28.4688 29C27.7396 29 27.0495 28.8633 26.3984 28.5898C25.7604 28.3164 25.2005 27.9388 24.7188 27.457C24.25 26.9753 23.8724 26.4154 23.5859 25.7773C23.3125 25.1393 23.1758 24.4557 23.1758 23.7266V11.2852H19.582V9H23.1758V4.19531L25.5781 3.80469V9H30.6562V11.2852H25.5781V23.8438C25.5781 24.2474 25.6497 24.625 25.793 24.9766C25.9492 25.3151 26.1576 25.6146 26.418 25.875C26.6784 26.1354 26.9844 26.3438 27.3359 26.5C27.6875 26.6432 28.0651 26.7148 28.4688 26.7148H30.6562V29H28.4688ZM48.4492 23.5117C48.4492 24.319 48.293 25.0807 47.9805 25.7969C47.681 26.513 47.2643 27.138 46.7305 27.6719C46.1966 28.2057 45.5716 28.6289 44.8555 28.9414C44.1393 29.2409 43.3776 29.3906 42.5703 29.3906H40.9688C40.1615 29.3906 39.3997 29.2409 38.6836 28.9414C37.9674 28.6289 37.3424 28.2057 36.8086 27.6719C36.2747 27.138 35.8516 26.513 35.5391 25.7969C35.2396 25.0807 35.0898 24.319 35.0898 23.5117V14.4883C35.0898 13.681 35.2396 12.9193 35.5391 12.2031C35.8516 11.487 36.2747 10.862 36.8086 10.3281C37.3424 9.79427 37.9674 9.3776 38.6836 9.07812C39.3997 8.76562 40.1615 8.60938 40.9688 8.60938H42.5703C43.3776 8.60938 44.1393 8.76562 44.8555 9.07812C45.5716 9.3776 46.1966 9.79427 46.7305 10.3281C47.2643 10.862 47.681 11.487 47.9805 12.2031C48.293 12.9193 48.4492 13.681 48.4492 14.4883V23.5117ZM46.0469 14.3516C46.0469 13.8698 45.9557 13.4206 45.7734 13.0039C45.5911 12.5742 45.3438 12.2031 45.0312 11.8906C44.7188 11.5781 44.3477 11.3307 43.918 11.1484C43.5013 10.9661 43.0521 10.875 42.5703 10.875H40.9688C40.487 10.875 40.0312 10.9661 39.6016 11.1484C39.1849 11.3307 38.8203 11.5781 38.5078 11.8906C38.1953 12.2031 37.9479 12.5742 37.7656 13.0039C37.5833 13.4206 37.4922 13.8698 37.4922 14.3516V23.6484C37.4922 24.1302 37.5833 24.5859 37.7656 25.0156C37.9479 25.4323 38.1953 25.7969 38.5078 26.1094C38.8203 26.4219 39.1849 26.6693 39.6016 26.8516C40.0312 27.0339 40.487 27.125 40.9688 27.125H42.5703C43.0521 27.125 43.5013 27.0339 43.918 26.8516C44.3477 26.6693 44.7188 26.4219 45.0312 26.1094C45.3438 25.7969 45.5911 25.4323 45.7734 25.0156C45.9557 24.5859 46.0469 24.1302 46.0469 23.6484V14.3516ZM54.0547 29V0.992188H56.457V29H54.0547ZM75.4414 23.5117C75.4414 24.319 75.2852 25.0807 74.9727 25.7969C74.6732 26.513 74.2565 27.138 73.7227 27.6719C73.1888 28.2057 72.5638 28.6289 71.8477 28.9414C71.1315 29.2409 70.3698 29.3906 69.5625 29.3906H67.9609C67.1536 29.3906 66.3919 29.2409 65.6758 28.9414C64.9596 28.6289 64.3346 28.2057 63.8008 27.6719C63.2669 27.138 62.8438 26.513 62.5312 25.7969C62.2318 25.0807 62.082 24.319 62.082 23.5117V14.4883C62.082 13.681 62.2318 12.9193 62.5312 12.2031C62.8438 11.487 63.2669 10.862 63.8008 10.3281C64.3346 9.79427 64.9596 9.3776 65.6758 9.07812C66.3919 8.76562 67.1536 8.60938 67.9609 8.60938H69.5625C70.3698 8.60938 71.1315 8.76562 71.8477 9.07812C72.5638 9.3776 73.1888 9.79427 73.7227 10.3281C74.2565 10.862 74.6732 11.487 74.9727 12.2031C75.2852 12.9193 75.4414 13.681 75.4414 14.4883V19.1953H64.4844V23.6484C64.4844 24.1302 64.5755 24.5859 64.7578 25.0156C64.9401 25.4323 65.1875 25.7969 65.5 26.1094C65.8125 26.4219 66.1771 26.6693 66.5938 26.8516C67.0234 27.0339 67.4792 27.125 67.9609 27.125H69.5625C70.0443 27.125 70.4935 27.0339 70.9102 26.8516C71.3398 26.6693 71.7109 26.4219 72.0234 26.1094C72.3359 25.7969 72.5833 25.4323 72.7656 25.0156C72.9479 24.5859 73.0391 24.1302 73.0391 23.6484V22.3203L75.4414 22.7109V23.5117ZM73.0391 14.3516C73.0391 13.8698 72.9479 13.4206 72.7656 13.0039C72.5833 12.5742 72.3359 12.2031 72.0234 11.8906C71.7109 11.5781 71.3398 11.3307 70.9102 11.1484C70.4935 10.9661 70.0443 10.875 69.5625 10.875H67.9609C67.4792 10.875 67.0234 10.9661 66.5938 11.1484C66.1771 11.3307 65.8125 11.5781 65.5 11.8906C65.1875 12.2031 64.9401 12.5742 64.7578 13.0039C64.5755 13.4206 64.4844 13.8698 64.4844 14.3516V17.3203H73.0391V14.3516ZM93.6055 23.5117C93.6055 24.319 93.4492 25.0807 93.1367 25.7969C92.8372 26.513 92.4206 27.138 91.8867 27.6719C91.3529 28.2057 90.7279 28.6289 90.0117 28.9414C89.2956 29.2409 88.5339 29.3906 87.7266 29.3906H86.125C85.3177 29.3906 84.556 29.2409 83.8398 28.9414C83.1237 28.6289 82.4987 28.2057 81.9648 27.6719C81.431 27.138 81.0078 26.513 80.6953 25.7969C80.3958 25.0807 80.2461 24.319 80.2461 23.5117V14.4883C80.2461 13.681 80.3958 12.9193 80.6953 12.2031C81.0078 11.487 81.431 10.862 81.9648 10.3281C82.4987 9.79427 83.1237 9.3776 83.8398 9.07812C84.556 8.76562 85.3177 8.60938 86.125 8.60938H87.7266C88.5339 8.60938 89.2956 8.76562 90.0117 9.07812C90.7279 9.3776 91.3529 9.79427 91.8867 10.3281C92.4206 10.862 92.8372 11.487 93.1367 12.2031C93.4492 12.9193 93.6055 13.681 93.6055 14.4883V15.2891L91.2031 15.6797V14.3516C91.2031 13.8698 91.112 13.4206 90.9297 13.0039C90.7474 12.5742 90.5 12.2031 90.1875 11.8906C89.875 11.5781 89.5039 11.3307 89.0742 11.1484C88.6576 10.9661 88.2083 10.875 87.7266 10.875H86.125C85.6432 10.875 85.1875 10.9661 84.7578 11.1484C84.3411 11.3307 83.9766 11.5781 83.6641 11.8906C83.3516 12.2031 83.1042 12.5742 82.9219 13.0039C82.7396 13.4206 82.6484 13.8698 82.6484 14.3516V23.6484C82.6484 24.1302 82.7396 24.5859 82.9219 25.0156C83.1042 25.4323 83.3516 25.7969 83.6641 26.1094C83.9766 26.4219 84.3411 26.6693 84.7578 26.8516C85.1875 27.0339 85.6432 27.125 86.125 27.125H87.7266C88.2083 27.125 88.6576 27.0339 89.0742 26.8516C89.5039 26.6693 89.875 26.4219 90.1875 26.1094C90.5 25.7969 90.7474 25.4323 90.9297 25.0156C91.112 24.5859 91.2031 24.1302 91.2031 23.6484V22.3203L93.6055 22.7109V23.5117ZM109.367 29V14.3516C109.367 13.8698 109.276 13.4206 109.094 13.0039C108.911 12.5742 108.664 12.2031 108.352 11.8906C108.039 11.5781 107.668 11.3307 107.238 11.1484C106.822 10.9661 106.372 10.875 105.891 10.875H104.289C103.807 10.875 103.352 10.9661 102.922 11.1484C102.505 11.3307 102.141 11.5781 101.828 11.8906C101.516 12.2031 101.268 12.5742 101.086 13.0039C100.904 13.4206 100.812 13.8698 100.812 14.3516V29H98.4102V0.992188H100.812V10.6797C101.359 10.0286 102.017 9.52083 102.785 9.15625C103.553 8.79167 104.387 8.60938 105.285 8.60938H105.891C106.698 8.60938 107.46 8.76562 108.176 9.07812C108.892 9.3776 109.517 9.79427 110.051 10.3281C110.585 10.862 111.001 11.487 111.301 12.2031C111.613 12.9193 111.77 13.681 111.77 14.4883V29H109.367ZM127.531 29V14.3516C127.531 13.8698 127.44 13.4206 127.258 13.0039C127.076 12.5742 126.828 12.2031 126.516 11.8906C126.203 11.5781 125.832 11.3307 125.402 11.1484C124.986 10.9661 124.536 10.875 124.055 10.875H122.453C121.971 10.875 121.516 10.9661 121.086 11.1484C120.669 11.3307 120.305 11.5781 119.992 11.8906C119.68 12.2031 119.432 12.5742 119.25 13.0039C119.068 13.4206 118.977 13.8698 118.977 14.3516V29H116.574V9H117.375L118.684 11.0312C119.23 10.2891 119.914 9.70312 120.734 9.27344C121.568 8.83073 122.473 8.60938 123.449 8.60938H124.055C124.862 8.60938 125.624 8.76562 126.34 9.07812C127.056 9.3776 127.681 9.79427 128.215 10.3281C128.749 10.862 129.165 11.487 129.465 12.2031C129.777 12.9193 129.934 13.681 129.934 14.4883V29H127.531ZM135.344 4.19531V0.992188H138.137V4.19531H135.344ZM135.539 29V9H137.941V29H135.539ZM156.926 23.5117C156.926 24.319 156.77 25.0807 156.457 25.7969C156.158 26.513 155.741 27.138 155.207 27.6719C154.673 28.2057 154.048 28.6289 153.332 28.9414C152.616 29.2409 151.854 29.3906 151.047 29.3906H149.445C148.638 29.3906 147.876 29.2409 147.16 28.9414C146.444 28.6289 145.819 28.2057 145.285 27.6719C144.751 27.138 144.328 26.513 144.016 25.7969C143.716 25.0807 143.566 24.319 143.566 23.5117V14.4883C143.566 13.681 143.716 12.9193 144.016 12.2031C144.328 11.487 144.751 10.862 145.285 10.3281C145.819 9.79427 146.444 9.3776 147.16 9.07812C147.876 8.76562 148.638 8.60938 149.445 8.60938H151.047C151.854 8.60938 152.616 8.76562 153.332 9.07812C154.048 9.3776 154.673 9.79427 155.207 10.3281C155.741 10.862 156.158 11.487 156.457 12.2031C156.77 12.9193 156.926 13.681 156.926 14.4883V15.2891L154.523 15.6797V14.3516C154.523 13.8698 154.432 13.4206 154.25 13.0039C154.068 12.5742 153.82 12.2031 153.508 11.8906C153.195 11.5781 152.824 11.3307 152.395 11.1484C151.978 10.9661 151.529 10.875 151.047 10.875H149.445C148.964 10.875 148.508 10.9661 148.078 11.1484C147.661 11.3307 147.297 11.5781 146.984 11.8906C146.672 12.2031 146.424 12.5742 146.242 13.0039C146.06 13.4206 145.969 13.8698 145.969 14.3516V23.6484C145.969 24.1302 146.06 24.5859 146.242 25.0156C146.424 25.4323 146.672 25.7969 146.984 26.1094C147.297 26.4219 147.661 26.6693 148.078 26.8516C148.508 27.0339 148.964 27.125 149.445 27.125H151.047C151.529 27.125 151.978 27.0339 152.395 26.8516C152.824 26.6693 153.195 26.4219 153.508 26.1094C153.82 25.7969 154.068 25.4323 154.25 25.0156C154.432 24.5859 154.523 24.1302 154.523 23.6484V22.3203L156.926 22.7109V23.5117ZM174.289 29L172.961 27.0078C172.414 27.724 171.73 28.3034 170.91 28.7461C170.09 29.1758 169.191 29.3906 168.215 29.3906H167.609C166.802 29.3906 166.04 29.2409 165.324 28.9414C164.608 28.6289 163.983 28.2057 163.449 27.6719C162.915 27.138 162.492 26.513 162.18 25.7969C161.88 25.0807 161.73 24.319 161.73 23.5117V23.3164C161.73 22.5091 161.88 21.7474 162.18 21.0312C162.492 20.3151 162.915 19.6901 163.449 19.1562C163.983 18.6224 164.608 18.2057 165.324 17.9062C166.04 17.5938 166.802 17.4375 167.609 17.4375H172.688V14.3516C172.688 13.8698 172.596 13.4206 172.414 13.0039C172.232 12.5742 171.984 12.2031 171.672 11.8906C171.359 11.5781 170.988 11.3307 170.559 11.1484C170.142 10.9661 169.693 10.875 169.211 10.875H167.805C167.323 10.875 166.867 10.9661 166.438 11.1484C166.021 11.3307 165.656 11.5781 165.344 11.8906C165.031 12.2031 164.784 12.5742 164.602 13.0039C164.419 13.4206 164.328 13.8698 164.328 14.3516V15.0742L161.926 14.6836V14.4883C161.926 13.681 162.076 12.9193 162.375 12.2031C162.688 11.487 163.111 10.862 163.645 10.3281C164.178 9.79427 164.803 9.3776 165.52 9.07812C166.236 8.76562 166.997 8.60938 167.805 8.60938H169.211C170.018 8.60938 170.78 8.76562 171.496 9.07812C172.212 9.3776 172.837 9.79427 173.371 10.3281C173.905 10.862 174.322 11.487 174.621 12.2031C174.934 12.9193 175.09 13.681 175.09 14.4883V29H174.289ZM172.688 19.3125H167.609C167.128 19.3125 166.672 19.4036 166.242 19.5859C165.826 19.7682 165.461 20.0221 165.148 20.3477C164.836 20.6602 164.589 21.0312 164.406 21.4609C164.224 21.8776 164.133 22.3268 164.133 22.8086V23.6484C164.133 24.1302 164.224 24.5859 164.406 25.0156C164.589 25.4323 164.836 25.7969 165.148 26.1094C165.461 26.4219 165.826 26.6693 166.242 26.8516C166.672 27.0339 167.128 27.125 167.609 27.125H169.211C169.693 27.125 170.142 27.0339 170.559 26.8516C170.988 26.6693 171.359 26.4219 171.672 26.1094C171.984 25.7969 172.232 25.4323 172.414 25.0156C172.596 24.5859 172.688 24.1302 172.688 23.6484V19.3125Z" fill="white"/>
</svg>
