<svg width="32" height="32" viewBox="0 0 32 32" fill="none" xmlns="http://www.w3.org/2000/svg">
<path d="M16 17C11.589 17 8 13.411 8 9C8 4.589 11.589 1 16 1C20.411 1 24 4.589 24 9C24 13.411 20.411 17 16 17ZM16 3C12.691 3 10 5.691 10 9C10 12.309 12.691 15 16 15C19.309 15 22 12.309 22 9C22 5.691 19.309 3 16 3Z" fill="#5B5B5B"/>
<path d="M16.4 13.2008H15.6C14.455 13.2008 13.43 12.4338 13.107 11.3368C12.951 10.8068 13.253 10.2508 13.784 10.0948C14.315 9.94178 14.87 10.2428 15.025 10.7718C15.1 11.0248 15.337 11.2018 15.6 11.2018H16.4C16.731 11.2018 17 10.9328 17 10.6018C17 10.2708 16.731 10.0008 16.4 10.0008H15.6C14.166 10.0008 13 8.83378 13 7.40078C13 5.96778 14.166 4.80078 15.6 4.80078H16.4C17.521 4.80078 18.511 5.51478 18.866 6.57878C19.041 7.10278 18.758 7.66878 18.234 7.84378C17.705 8.02078 17.144 7.73478 16.969 7.21178C16.888 6.96578 16.659 6.80078 16.4 6.80078H15.6C15.269 6.80078 15 7.06978 15 7.40078C15 7.73178 15.269 8.00078 15.6 8.00078H16.4C17.834 8.00078 19 9.16778 19 10.6008C19 12.0338 17.834 13.2008 16.4 13.2008Z" fill="#5B5B5B"/>
<path d="M16 5.99922C15.729 5.99922 15.479 5.88922 15.29 5.70922C15.25 5.65922 15.2 5.60922 15.17 5.54922C15.13 5.49922 15.1 5.43922 15.08 5.37922C15.05 5.31922 15.03 5.25922 15.019 5.19922C15.01 5.12922 15 5.06922 15 4.99922C15 4.73922 15.109 4.47922 15.29 4.28922C15.66 3.91922 16.33 3.91922 16.71 4.28922C16.89 4.47922 17 4.73922 17 4.99922C17 5.06922 16.99 5.12922 16.979 5.19922C16.969 5.25922 16.95 5.31922 16.919 5.37922C16.898 5.43922 16.869 5.49922 16.829 5.54922C16.789 5.60922 16.749 5.65922 16.709 5.70922C16.52 5.88922 16.26 5.99922 16 5.99922ZM16 13.9992C15.729 13.9992 15.479 13.8892 15.29 13.7092C15.25 13.6592 15.2 13.6092 15.17 13.5492C15.13 13.4992 15.1 13.4392 15.08 13.3792C15.05 13.3192 15.03 13.2592 15.019 13.1992C15.01 13.1292 15 13.0692 15 12.9992C15 12.7392 15.109 12.4792 15.29 12.2892C15.66 11.9192 16.33 11.9192 16.71 12.2892C16.89 12.4792 17 12.7392 17 12.9992C17 13.0692 16.99 13.1292 16.979 13.1992C16.969 13.2592 16.95 13.3192 16.919 13.3792C16.898 13.4392 16.869 13.4992 16.829 13.5492C16.789 13.6092 16.749 13.6592 16.709 13.7092C16.52 13.8892 16.26 13.9992 16 13.9992ZM18 30.9992H2C1.447 30.9992 1 30.5512 1 29.9992V20.9992C1 20.7342 1.105 20.4792 1.293 20.2922C1.527 20.0572 3.653 17.9992 6 17.9992C7.944 17.9992 10.452 19.4682 11.295 19.9992H16C17.654 19.9992 19 21.3452 19 22.9992C19 23.1762 18.984 23.3492 18.955 23.5182L26.846 20.2302C27.774 19.8432 28.827 19.9462 29.664 20.5032C30.501 21.0612 31 21.9942 31 22.9992C31 23.3542 30.812 23.6842 30.504 23.8632L18.504 30.8632C18.351 30.9522 18.177 30.9992 18 30.9992ZM3 28.9992H17.729L28.869 22.5012C28.794 22.3702 28.687 22.2562 28.555 22.1672C28.272 21.9782 27.928 21.9452 27.616 22.0762L18.386 25.9222C18.263 25.9732 18.132 25.9992 18 25.9992H10C9.447 25.9992 9 25.5512 9 24.9992C9 24.4472 9.447 23.9992 10 23.9992H16C16.552 23.9992 17 23.5502 17 22.9992C17 22.4482 16.552 21.9992 16 21.9992H11C10.803 21.9992 10.609 21.9402 10.445 21.8322C9.68 21.3222 7.387 19.9992 6 19.9992C4.91 19.9992 3.653 20.8792 3 21.4382V28.9992Z" fill="#5B5B5B"/>
</svg>
