<svg width="26" height="27" viewBox="0 0 26 27" fill="none" xmlns="http://www.w3.org/2000/svg">
<path d="M17.3333 3.75H1.08334V17.8333H17.3333V3.75Z" stroke="#5A2418" stroke-width="1.5" stroke-linecap="round" stroke-linejoin="round"/>
<path d="M17.3333 9.16602H21.6667L24.9167 12.416V17.8327H17.3333V9.16602Z" stroke="#5A2418" stroke-width="1.5" stroke-linecap="round" stroke-linejoin="round"/>
<path d="M5.95833 23.2507C7.4541 23.2507 8.66667 22.0381 8.66667 20.5423C8.66667 19.0465 7.4541 17.834 5.95833 17.834C4.46256 17.834 3.25 19.0465 3.25 20.5423C3.25 22.0381 4.46256 23.2507 5.95833 23.2507Z" stroke="#5A2418" stroke-width="1.5" stroke-linecap="round" stroke-linejoin="round"/>
<path d="M20.0417 23.2507C21.5374 23.2507 22.75 22.0381 22.75 20.5423C22.75 19.0465 21.5374 17.834 20.0417 17.834C18.5459 17.834 17.3333 19.0465 17.3333 20.5423C17.3333 22.0381 18.5459 23.2507 20.0417 23.2507Z" stroke="#5A2418" stroke-width="1.5" stroke-linecap="round" stroke-linejoin="round"/>
</svg>
