<svg width="30" height="30" viewBox="0 0 30 30" fill="none" xmlns="http://www.w3.org/2000/svg">
<path d="M26.05 5.76283C25.4116 5.12408 24.6535 4.61739 23.8192 4.27168C22.9849 3.92598 22.0906 3.74805 21.1875 3.74805C20.2844 3.74805 19.3902 3.92598 18.5558 4.27168C17.7215 4.61739 16.9635 5.12408 16.325 5.76283L15 7.08783L13.675 5.76283C12.3854 4.47321 10.6363 3.74872 8.81253 3.74872C6.98874 3.74872 5.23964 4.47321 3.95003 5.76283C2.66041 7.05244 1.93591 8.80154 1.93591 10.6253C1.93591 12.4491 2.66041 14.1982 3.95003 15.4878L5.27503 16.8128L15 26.5378L24.725 16.8128L26.05 15.4878C26.6888 14.8494 27.1955 14.0913 27.5412 13.257C27.8869 12.4227 28.0648 11.5284 28.0648 10.6253C28.0648 9.72222 27.8869 8.82796 27.5412 7.99363C27.1955 7.15931 26.6888 6.40127 26.05 5.76283V5.76283Z" stroke="#EB6345" stroke-width="2" stroke-linecap="round" stroke-linejoin="round"/>
</svg>
