<svg width="30" height="26" viewBox="0 0 30 26" fill="none" xmlns="http://www.w3.org/2000/svg">
<path d="M26.05 3.76249C25.4116 3.12375 24.6535 2.61705 23.8192 2.27135C22.9849 1.92565 22.0906 1.74771 21.1875 1.74771C20.2844 1.74771 19.3902 1.92565 18.5558 2.27135C17.7215 2.61705 16.9635 3.12375 16.325 3.76249L15 5.08749L13.675 3.76249C12.3854 2.47288 10.6363 1.74838 8.81253 1.74838C6.98874 1.74838 5.23964 2.47288 3.95003 3.76249C2.66041 5.05211 1.93591 6.8012 1.93591 8.62499C1.93591 10.4488 2.66041 12.1979 3.95003 13.4875L5.27503 14.8125L15 24.5375L24.725 14.8125L26.05 13.4875C26.6888 12.849 27.1955 12.091 27.5412 11.2567C27.8869 10.4224 28.0648 9.5281 28.0648 8.62499C28.0648 7.72188 27.8869 6.82762 27.5412 5.9933C27.1955 5.15897 26.6888 4.40094 26.05 3.76249V3.76249Z" stroke="#EB6345" stroke-width="2" stroke-linecap="round" stroke-linejoin="round"/>
</svg>
