<svg width="26" height="26" viewBox="0 0 26 26" fill="none" xmlns="http://www.w3.org/2000/svg">
<path d="M22.75 10.834C22.75 18.4173 13 24.9173 13 24.9173C13 24.9173 3.25 18.4173 3.25 10.834C3.25 8.24812 4.27723 5.76817 6.10571 3.93969C7.93419 2.11121 10.4141 1.08398 13 1.08398C15.5859 1.08398 18.0658 2.11121 19.8943 3.93969C21.7228 5.76817 22.75 8.24812 22.75 10.834Z" stroke="#EB6345" stroke-width="2" stroke-linecap="round" stroke-linejoin="round"/>
<path d="M13 14.084C14.7949 14.084 16.25 12.6289 16.25 10.834C16.25 9.03906 14.7949 7.58398 13 7.58398C11.2051 7.58398 9.75 9.03906 9.75 10.834C9.75 12.6289 11.2051 14.084 13 14.084Z" stroke="#EB6345" stroke-width="2" stroke-linecap="round" stroke-linejoin="round"/>
</svg>
