<svg width="32" height="32" viewBox="0 0 32 32" fill="none" xmlns="http://www.w3.org/2000/svg">
<path fill-rule="evenodd" clip-rule="evenodd" d="M21.7141 2.6665H26.0696C27.8716 2.6665 29.3334 4.14103 29.3334 5.96008V10.352C29.3334 12.1696 27.8716 13.6456 26.0696 13.6456H21.7141C19.9107 13.6456 18.4489 12.1696 18.4489 10.352V5.96008C18.4489 4.14103 19.9107 2.6665 21.7141 2.6665ZM5.93198 2.6665H10.2861C12.0895 2.6665 13.5513 4.14103 13.5513 5.96008V10.352C13.5513 12.1696 12.0895 13.6456 10.2861 13.6456H5.93198C4.12859 13.6456 2.66675 12.1696 2.66675 10.352V5.96008C2.66675 4.14103 4.12859 2.6665 5.93198 2.6665ZM5.93198 18.3541H10.2861C12.0895 18.3541 13.5513 19.8287 13.5513 21.6491V26.0396C13.5513 27.8586 12.0895 29.3332 10.2861 29.3332H5.93198C4.12859 29.3332 2.66675 27.8586 2.66675 26.0396V21.6491C2.66675 19.8287 4.12859 18.3541 5.93198 18.3541ZM21.7141 18.3541H26.0696C27.8716 18.3541 29.3334 19.8287 29.3334 21.6491V26.0396C29.3334 27.8586 27.8716 29.3332 26.0696 29.3332H21.7141C19.9107 29.3332 18.4489 27.8586 18.4489 26.0396V21.6491C18.4489 19.8287 19.9107 18.3541 21.7141 18.3541Z" stroke="#EB6345" stroke-width="2" stroke-linecap="round" stroke-linejoin="round"/>
</svg>
