<svg width="22" height="23" viewBox="0 0 22 23" fill="none" xmlns="http://www.w3.org/2000/svg">
<path d="M2.75 6H4.58333H19.25" stroke="#EB6345" stroke-linecap="round" stroke-linejoin="round"/>
<path d="M17.4166 6.00016V18.8335C17.4166 19.3197 17.2234 19.786 16.8796 20.1299C16.5358 20.4737 16.0695 20.6668 15.5833 20.6668H6.41658C5.93035 20.6668 5.46404 20.4737 5.12022 20.1299C4.77641 19.786 4.58325 19.3197 4.58325 18.8335V6.00016M7.33325 6.00016V4.16683C7.33325 3.6806 7.52641 3.21428 7.87022 2.87047C8.21404 2.52665 8.68035 2.3335 9.16658 2.3335H12.8333C13.3195 2.3335 13.7858 2.52665 14.1296 2.87047C14.4734 3.21428 14.6666 3.6806 14.6666 4.16683V6.00016" stroke="#EB6345" stroke-linecap="round" stroke-linejoin="round"/>
<path d="M9.16675 10.5835V16.0835" stroke="#EB6345" stroke-linecap="round" stroke-linejoin="round"/>
<path d="M12.8333 10.5835V16.0835" stroke="#EB6345" stroke-linecap="round" stroke-linejoin="round"/>
</svg>
