<svg width="25" height="24" viewBox="0 0 25 24" fill="none" xmlns="http://www.w3.org/2000/svg">
<path d="M16.6416 14C16.4416 13.9 15.1416 13.3 14.9416 13.2C14.7416 13.1 14.5416 13.1 14.3416 13.3C14.1416 13.5 13.7416 14.1 13.5416 14.3C13.4416 14.5 13.2416 14.5 13.0416 14.4C12.3416 14.1 11.6416 13.7 11.0416 13.2C10.5416 12.7 10.0416 12.1 9.64163 11.5C9.54163 11.3 9.64163 11.1 9.74163 11C9.84163 10.9 9.94163 10.7 10.1416 10.6C10.2416 10.5 10.3416 10.3 10.3416 10.2C10.4416 10.1 10.4416 9.90001 10.3416 9.80001C10.2416 9.70001 9.74163 8.50001 9.54163 8.00001C9.44163 7.30001 9.24163 7.30001 9.04163 7.30001C8.94163 7.30001 8.74163 7.30001 8.54163 7.30001C8.34163 7.30001 8.04163 7.50001 7.94163 7.60001C7.34163 8.20001 7.04163 8.90001 7.04163 9.70001C7.14163 10.6 7.44163 11.5 8.04163 12.3C9.14163 13.9 10.5416 15.2 12.2416 16C12.7416 16.2 13.1416 16.4 13.6416 16.5C14.1416 16.7 14.6416 16.7 15.2416 16.6C15.9416 16.5 16.5416 16 16.9416 15.4C17.1416 15 17.1416 14.6 17.0416 14.2C17.0416 14.2 16.8416 14.1 16.6416 14ZM19.1416 4.90001C15.2416 1.00001 8.94163 1.00001 5.04163 4.90001C1.84163 8.10001 1.24163 13 3.44163 16.9L2.04163 22L7.34163 20.6C8.84163 21.4 10.4416 21.8 12.0416 21.8C17.5416 21.8 21.9416 17.4 21.9416 11.9C22.0416 9.30001 20.9416 6.80001 19.1416 4.90001ZM16.4416 18.9C15.1416 19.7 13.6416 20.2 12.0416 20.2C10.5416 20.2 9.14163 19.8 7.84163 19.1L7.54163 18.9L4.44163 19.7L5.24163 16.7L5.04163 16.4C2.64163 12.4 3.84163 7.40001 7.74163 4.90001C11.6416 2.40001 16.6416 3.70001 19.0416 7.50001C21.4416 11.4 20.3416 16.5 16.4416 18.9Z" fill="#EB6345"/>
</svg>
